<svg width="15" height="15" viewBox="0 0 15 15" fill="none" xmlns="http://www.w3.org/2000/svg">
<path d="M12.4375 7.9125C12.3373 7.79844 12.282 7.65181 12.282 7.5C12.282 7.34818 12.3373 7.20155 12.4375 7.0875L13.2375 6.1875C13.3257 6.08916 13.3804 5.96544 13.3939 5.83406C13.4073 5.70269 13.3789 5.57042 13.3125 5.45625L12.0625 3.29375C11.9968 3.1797 11.8968 3.08929 11.7767 3.03542C11.6566 2.98156 11.5226 2.96697 11.3937 2.99375L10.2187 3.23125C10.0692 3.26214 9.91359 3.23724 9.78118 3.16125C9.64876 3.08525 9.54875 2.96342 9.5 2.81875L9.11875 1.675C9.07682 1.55086 8.99693 1.44304 8.89039 1.36677C8.78384 1.29051 8.65602 1.24966 8.525 1.25H6.025C5.8887 1.24288 5.75383 1.28057 5.64097 1.35732C5.52812 1.43406 5.44348 1.54563 5.4 1.675L5.05 2.81875C5.00125 2.96342 4.90123 3.08525 4.76882 3.16125C4.6364 3.23724 4.48076 3.26214 4.33125 3.23125L3.125 2.99375C3.00284 2.97648 2.87831 2.99576 2.76709 3.04915C2.65587 3.10253 2.56293 3.18764 2.5 3.29375L1.25 5.45625C1.18197 5.56915 1.15139 5.70067 1.16261 5.83201C1.17384 5.96335 1.2263 6.08777 1.3125 6.1875L2.10625 7.0875C2.20645 7.20155 2.26171 7.34818 2.26171 7.5C2.26171 7.65181 2.20645 7.79844 2.10625 7.9125L1.3125 8.8125C1.2263 8.91222 1.17384 9.03664 1.16261 9.16798C1.15139 9.29932 1.18197 9.43084 1.25 9.54375L2.5 11.7062C2.56568 11.8203 2.6657 11.9107 2.78578 11.9646C2.90586 12.0184 3.03989 12.033 3.16875 12.0062L4.34375 11.7687C4.49326 11.7379 4.6489 11.7628 4.78132 11.8387C4.91373 11.9147 5.01375 12.0366 5.0625 12.1812L5.44375 13.325C5.48723 13.4544 5.57187 13.5659 5.68472 13.6427C5.79758 13.7194 5.93245 13.7571 6.06875 13.75H8.56875C8.69977 13.7503 8.82759 13.7095 8.93414 13.6332C9.04069 13.557 9.12057 13.4491 9.1625 13.325L9.54375 12.1812C9.5925 12.0366 9.69251 11.9147 9.82493 11.8387C9.95734 11.7628 10.113 11.7379 10.2625 11.7687L11.4375 12.0062C11.5664 12.033 11.7004 12.0184 11.8205 11.9646C11.9405 11.9107 12.0406 11.8203 12.1062 11.7062L13.3562 9.54375C13.4226 9.42957 13.4511 9.2973 13.4376 9.16593C13.4241 9.03456 13.3694 8.91083 13.2812 8.8125L12.4375 7.9125ZM11.5062 8.75L12.0062 9.3125L11.2062 10.7L10.4687 10.55C10.0186 10.458 9.55035 10.5344 9.15287 10.7649C8.75538 10.9953 8.45634 11.3636 8.3125 11.8L8.075 12.5H6.475L6.25 11.7875C6.10616 11.3511 5.80711 10.9828 5.40962 10.7524C5.01214 10.5219 4.54388 10.4455 4.09375 10.5375L3.35625 10.6875L2.54375 9.30625L3.04375 8.74375C3.35122 8.39998 3.5212 7.95495 3.5212 7.49375C3.5212 7.03254 3.35122 6.58751 3.04375 6.24375L2.54375 5.68125L3.34375 4.30625L4.08125 4.45625C4.53138 4.54826 4.99964 4.4718 5.39712 4.24137C5.79461 4.01094 6.09366 3.64259 6.2375 3.20625L6.475 2.5H8.075L8.3125 3.2125C8.45634 3.64884 8.75538 4.01719 9.15287 4.24762C9.55035 4.47805 10.0186 4.55451 10.4687 4.4625L11.2062 4.3125L12.0062 5.7L11.5062 6.2625C11.2022 6.60547 11.0344 7.04792 11.0344 7.50625C11.0344 7.96457 11.2022 8.40702 11.5062 8.75ZM7.275 5C6.78054 5 6.29719 5.14662 5.88607 5.42132C5.47495 5.69603 5.15452 6.08647 4.9653 6.54329C4.77608 7.0001 4.72657 7.50277 4.82303 7.98772C4.9195 8.47267 5.1576 8.91813 5.50723 9.26776C5.85686 9.61739 6.30232 9.8555 6.78727 9.95196C7.27222 10.0484 7.77489 9.99891 8.2317 9.80969C8.68852 9.62048 9.07897 9.30004 9.35367 8.88892C9.62837 8.4778 9.775 7.99445 9.775 7.5C9.775 6.83695 9.5116 6.20107 9.04276 5.73223C8.57392 5.26339 7.93804 5 7.275 5ZM7.275 8.75C7.02777 8.75 6.78609 8.67668 6.58053 8.53933C6.37497 8.40198 6.21476 8.20676 6.12015 7.97835C6.02554 7.74994 6.00078 7.49861 6.04901 7.25613C6.09725 7.01366 6.2163 6.79093 6.39111 6.61611C6.56593 6.4413 6.78866 6.32225 7.03113 6.27401C7.27361 6.22578 7.52494 6.25054 7.75335 6.34515C7.98176 6.43976 8.17698 6.59997 8.31433 6.80553C8.45168 7.01109 8.525 7.25277 8.525 7.5C8.525 7.83152 8.3933 8.14946 8.15888 8.38388C7.92446 8.6183 7.60652 8.75 7.275 8.75Z" fill="#E42256"/>
</svg>
