<svg width="13" height="12" viewBox="0 0 13 12" fill="none" xmlns="http://www.w3.org/2000/svg">
<path d="M7.33429 2.5C7.33429 2.22386 7.11043 2 6.83429 2C6.55815 2 6.33429 2.22386 6.33429 2.5C6.33429 2.77614 6.55815 3 6.83429 3C7.11043 3 7.33429 2.77614 7.33429 2.5Z" stroke="black" stroke-opacity="0.5" stroke-width="2" stroke-linecap="round" stroke-linejoin="round"/>
<path d="M7.33429 6C7.33429 5.72386 7.11043 5.5 6.83429 5.5C6.55815 5.5 6.33429 5.72386 6.33429 6C6.33429 6.27614 6.55815 6.5 6.83429 6.5C7.11043 6.5 7.33429 6.27614 7.33429 6Z" stroke="black" stroke-opacity="0.5" stroke-width="2" stroke-linecap="round" stroke-linejoin="round"/>
<path d="M7.33429 9.5C7.33429 9.22386 7.11043 9 6.83429 9C6.55815 9 6.33429 9.22386 6.33429 9.5C6.33429 9.77614 6.55815 10 6.83429 10C7.11043 10 7.33429 9.77614 7.33429 9.5Z" stroke="black" stroke-opacity="0.5" stroke-width="2" stroke-linecap="round" stroke-linejoin="round"/>
</svg>
