<svg width="15" height="15" viewBox="0 0 15 15" fill="none" xmlns="http://www.w3.org/2000/svg">
<g opacity="0.5">
<path d="M12.4438 9.69375H9.6125C9.44674 9.69375 9.28777 9.7596 9.17056 9.87681C9.05335 9.99402 8.9875 10.153 8.9875 10.3188C8.9875 10.4845 9.05335 10.6435 9.17056 10.7607C9.28777 10.8779 9.44674 10.9438 9.6125 10.9438H11.1125C10.4231 11.6642 9.534 12.1621 8.55948 12.3734C7.58495 12.5847 6.56951 12.4998 5.64361 12.1295C4.71772 11.7593 3.92367 11.1207 3.36349 10.2957C2.80332 9.47078 2.50261 8.49717 2.5 7.5C2.5 7.33424 2.43415 7.17527 2.31694 7.05806C2.19973 6.94085 2.04076 6.875 1.875 6.875C1.70924 6.875 1.55027 6.94085 1.43306 7.05806C1.31585 7.17527 1.25 7.33424 1.25 7.5C1.2533 8.7205 1.61389 9.91332 2.28725 10.9313C2.96062 11.9492 3.91729 12.7477 5.03921 13.2283C6.16114 13.7088 7.39921 13.8503 8.60064 13.6354C9.80206 13.4205 10.9143 12.8585 11.8 12.0187V13.125C11.8 13.2908 11.8658 13.4497 11.9831 13.5669C12.1003 13.6842 12.2592 13.75 12.425 13.75C12.5908 13.75 12.7497 13.6842 12.8669 13.5669C12.9842 13.4497 13.05 13.2908 13.05 13.125V10.3125C13.0485 10.151 12.9845 9.99641 12.8715 9.88106C12.7584 9.76571 12.6052 9.69859 12.4438 9.69375ZM7.5 1.25C5.89774 1.25457 4.35843 1.87432 3.2 2.98125V1.875C3.2 1.70924 3.13415 1.55027 3.01694 1.43306C2.89973 1.31585 2.74076 1.25 2.575 1.25C2.40924 1.25 2.25027 1.31585 2.13306 1.43306C2.01585 1.55027 1.95 1.70924 1.95 1.875V4.6875C1.95 4.85326 2.01585 5.01223 2.13306 5.12944C2.25027 5.24665 2.40924 5.3125 2.575 5.3125H5.3875C5.55326 5.3125 5.71223 5.24665 5.82944 5.12944C5.94665 5.01223 6.0125 4.85326 6.0125 4.6875C6.0125 4.52174 5.94665 4.36277 5.82944 4.24556C5.71223 4.12835 5.55326 4.0625 5.3875 4.0625H3.8875C4.57654 3.34242 5.46506 2.84469 6.439 2.63319C7.41294 2.4217 8.42787 2.50609 9.3535 2.87554C10.2791 3.24499 11.0732 3.88263 11.6339 4.70663C12.1945 5.53062 12.4962 6.50337 12.5 7.5C12.5 7.66576 12.5658 7.82473 12.6831 7.94194C12.8003 8.05915 12.9592 8.125 13.125 8.125C13.2908 8.125 13.4497 8.05915 13.5669 7.94194C13.6842 7.82473 13.75 7.66576 13.75 7.5C13.75 6.67924 13.5883 5.86651 13.2742 5.10823C12.9602 4.34994 12.4998 3.66095 11.9194 3.08058C11.3391 2.50022 10.6501 2.03984 9.89177 1.72575C9.13349 1.41166 8.32076 1.25 7.5 1.25Z" fill="white"/>
</g>
</svg>
