<svg width="35" height="35" viewBox="0 0 35 35" fill="none" xmlns="http://www.w3.org/2000/svg">
<circle cx="17.5" cy="17.5" r="17.5" fill="#D9D9D9"/>
<mask id="mask0_56_123" style="mask-type:alpha" maskUnits="userSpaceOnUse" x="0" y="0" width="35" height="35">
<circle cx="17.5" cy="17.5" r="17.5" fill="#D9D9D9"/>
</mask>
<g mask="url(#mask0_56_123)">
</g>
<path d="M18 26L25 19L28 22L21 29L18 26Z" stroke="black" stroke-opacity="0.5" stroke-width="2" stroke-linecap="round" stroke-linejoin="round"/>
<path d="M24 20L22.5 12.5L8 9L11.5 23.5L19 25L24 20Z" stroke="black" stroke-opacity="0.5" stroke-width="2" stroke-linecap="round" stroke-linejoin="round"/>
<path d="M8 9L15.586 16.586" stroke="black" stroke-opacity="0.5" stroke-width="2" stroke-linecap="round" stroke-linejoin="round"/>
<path d="M17 20C18.1046 20 19 19.1046 19 18C19 16.8954 18.1046 16 17 16C15.8954 16 15 16.8954 15 18C15 19.1046 15.8954 20 17 20Z" stroke="black" stroke-opacity="0.5" stroke-width="2" stroke-linecap="round" stroke-linejoin="round"/>
</svg>
