<svg width="15" height="15" viewBox="0 0 15 15" fill="none" xmlns="http://www.w3.org/2000/svg">
<g clip-path="url(#clip0_52_170)">
<path d="M14.9921 7.6403C14.9921 7.02575 14.941 6.5773 14.8306 6.11224H7.6494V8.88598H11.8646C11.7797 9.5753 11.3207 10.6134 10.3009 11.3109L10.2866 11.4038L12.5572 13.1227L12.7145 13.138C14.1592 11.8342 14.9921 9.91577 14.9921 7.6403Z" fill="#4285F4"/>
<path d="M7.6494 14.9484C9.7145 14.9484 11.4482 14.284 12.7145 13.138L10.3009 11.3109C9.65503 11.7511 8.78817 12.0584 7.6494 12.0584C5.62677 12.0584 3.91009 10.7546 3.29815 8.95245L3.20845 8.9599L0.84748 10.7454L0.816605 10.8293C2.07437 13.2709 4.65791 14.9484 7.6494 14.9484Z" fill="#34A853"/>
<path d="M3.29827 8.9525C3.1368 8.48744 3.04335 7.98912 3.04335 7.47425C3.04335 6.95933 3.1368 6.46107 3.28977 5.99601L3.2855 5.89696L0.894941 4.08276L0.816727 4.11912C0.298342 5.13231 0.000892639 6.27007 0.000892639 7.47425C0.000892639 8.67843 0.298342 9.81614 0.816727 10.8293L3.29827 8.9525Z" fill="#FBBC05"/>
<path d="M7.6494 2.89002C9.08562 2.89002 10.0544 3.49626 10.6068 4.00288L12.7655 1.9433C11.4397 0.739122 9.7145 0 7.6494 0C4.65791 0 2.07437 1.67754 0.816605 4.1191L3.28965 5.99599C3.9101 4.19387 5.62677 2.89002 7.6494 2.89002Z" fill="#EB4335"/>
</g>
<defs>
<clipPath id="clip0_52_170">
<rect width="15" height="15" fill="white"/>
</clipPath>
</defs>
</svg>
