<svg width="268" height="151" viewBox="0 0 268 151" fill="none" xmlns="http://www.w3.org/2000/svg">
<path d="M261.852 -29.9972C272.444 -3.54232 275.063 28.0725 263.087 52.0668C251.647 74.9878 219.957 74.9743 201.178 91.57C183.993 106.757 179.732 135.729 158.56 144.439C136.184 153.645 107.643 152.95 85.862 139.013C64.5494 125.376 62.3205 94.6916 47.6524 73.4734C33.1804 52.5389 2.78258 40.5033 0.518966 15.56C-1.74293 -9.3643 26.877 -22.2375 36.9965 -43.9451C47.7973 -67.114 42.5706 -99.5719 61.6666 -115.609C81.3282 -132.122 110.641 -132.24 136.756 -127.726C162.35 -123.302 184.628 -107.319 205.939 -90.6709C227.868 -73.5391 251.391 -56.1266 261.852 -29.9972Z" fill="url(#paint0_linear_52_196)" fill-opacity="0.5"/>
<defs>
<linearGradient id="paint0_linear_52_196" x1="243.713" y1="-63.0303" x2="24.6872" y2="63.424" gradientUnits="userSpaceOnUse">
<stop stop-opacity="0.15"/>
<stop offset="1" stop-color="#007EA7" stop-opacity="0"/>
</linearGradient>
</defs>
</svg>
